<svg width="58" height="58" viewBox="0 0 58 58" fill="none" xmlns="http://www.w3.org/2000/svg">
<rect width="58" height="58" fill="#F5F5F5"/>
<g clip-path="url(#clip0_0_1)">
<rect width="1440" height="8583" transform="translate(-194 -2763)" fill="white"/>
<g filter="url(#filter0_d_0_1)">
<rect x="-29" y="-17" width="380" height="93" rx="20" fill="white"/>
</g>
<path d="M58 29C58 45.0163 45.0163 58 29 58C12.9837 58 0 45.0163 0 29C0 12.9837 12.9837 0 29 0C45.0163 0 58 12.9837 58 29Z" fill="#55852F"/>
<path d="M39 37.005H19C18.4697 37.0045 17.9613 36.7936 17.5864 36.4186C17.2114 36.0437 17.0005 35.5353 17 35.005V21.005C17.0005 20.4747 17.2114 19.9663 17.5864 19.5914C17.9613 19.2164 18.4697 19.0055 19 19.005H39C39.5303 19.0055 40.0387 19.2164 40.4136 19.5914C40.7886 19.9663 40.9995 20.4747 41 21.005V35.005C40.9992 35.5352 40.7882 36.0434 40.4133 36.4183C40.0384 36.7932 39.5302 37.0042 39 37.005V37.005ZM19 21.005V35.005H39V21.005H19ZM15 39.005H43V41.005H15V39.005Z" fill="white"/>
</g>
<defs>
<filter id="filter0_d_0_1" x="-59" y="-43" width="440" height="153" filterUnits="userSpaceOnUse" color-interpolation-filters="sRGB">
<feFlood flood-opacity="0" result="BackgroundImageFix"/>
<feColorMatrix in="SourceAlpha" type="matrix" values="0 0 0 0 0 0 0 0 0 0 0 0 0 0 0 0 0 0 127 0" result="hardAlpha"/>
<feOffset dy="4"/>
<feGaussianBlur stdDeviation="15"/>
<feComposite in2="hardAlpha" operator="out"/>
<feColorMatrix type="matrix" values="0 0 0 0 0 0 0 0 0 0 0 0 0 0 0 0 0 0 0.08 0"/>
<feBlend mode="normal" in2="BackgroundImageFix" result="effect1_dropShadow_0_1"/>
<feBlend mode="normal" in="SourceGraphic" in2="effect1_dropShadow_0_1" result="shape"/>
</filter>
<clipPath id="clip0_0_1">
<rect width="1440" height="8583" fill="white" transform="translate(-194 -2763)"/>
</clipPath>
</defs>
</svg>
